<?xml version="1.0" encoding="utf-8"?>
<!-- Generator: Adobe Illustrator 16.0.0, SVG Export Plug-In . SVG Version: 6.00 Build 0)  -->
<!DOCTYPE svg PUBLIC "-//W3C//DTD SVG 1.1//EN" "http://www.w3.org/Graphics/SVG/1.1/DTD/svg11.dtd">
<svg version="1.1" xmlns="http://www.w3.org/2000/svg" xmlns:xlink="http://www.w3.org/1999/xlink" x="0px" y="0px"
	 width="431.041px" height="283.235px" viewBox="0 0 431.041 283.235" enable-background="new 0 0 431.041 283.235"
	 xml:space="preserve">
<g id="Layer_1">
</g>
<g id="Layer_2">
</g>
<g id="Layer_4">
</g>
<g id="Layer_6">
</g>
<g id="Layer_7">
</g>
<g id="Layer_5">
	<g>
		<rect x="56.897" y="27.959" fill="#E7E7E7" width="364.112" height="246.643"/>
	</g>
	<g>
		<polygon fill="#FFFFFF" points="312.801,7.848 230.122,19.393 147.444,7.848 52.013,21.347 52.013,269.75 147.444,256.25 
			230.122,269.75 312.801,256.25 409.297,269.75 409.297,21.347 		"/>
	</g>
	<g>
		<path fill="#B5AC9E" d="M409.297,271.25c-0.069,0-0.139-0.005-0.208-0.015l-96.271-13.469l-82.455,13.464
			c-0.158,0.025-0.323,0.025-0.483,0l-82.452-13.463l-95.205,13.468c-0.438,0.061-0.866-0.068-1.193-0.353
			c-0.328-0.285-0.517-0.698-0.517-1.133V21.347c0-0.747,0.55-1.38,1.29-1.485l95.432-13.499c0.139-0.019,0.28-0.019,0.417,0
			l82.471,11.516l82.472-11.516c0.137-0.02,0.276-0.02,0.415,0l96.496,13.499c0.741,0.104,1.292,0.737,1.292,1.485V269.75
			c0,0.434-0.188,0.847-0.516,1.132C410.007,271.121,409.656,271.25,409.297,271.25z M147.444,254.75
			c0.081,0,0.162,0.007,0.242,0.02l82.436,13.461l82.438-13.461c0.147-0.023,0.299-0.026,0.449-0.005l94.788,13.261V22.651
			L312.801,9.362l-82.472,11.516c-0.137,0.019-0.277,0.019-0.414,0l-82.47-11.516L53.513,22.649v245.373l93.722-13.258
			C147.304,254.755,147.374,254.75,147.444,254.75z"/>
	</g>
	<g>
		<g>
			<polygon fill="#DBDBDB" points="147.444,244 64.766,256.242 64.766,31.008 147.444,18.768 			"/>
		</g>
		<g>
			<polygon fill="#C6C6C6" points="147.444,244 230.122,256.242 230.122,31.008 147.444,18.768 			"/>
		</g>
		<g>
			<polygon fill="#DBDBDB" points="312.801,244 230.122,256.242 230.122,31.008 312.801,18.768 			"/>
		</g>
		<g>
			<polygon fill="#C6C6C6" points="312.801,244 395.479,256.242 395.479,31.008 312.801,18.768 			"/>
		</g>
	</g>
	<g>
		<g>
			<polygon fill="#FFFFFF" points="402.882,164.513 360.87,137.536 368.584,18.601 374.572,18.989 367.087,134.397 406.124,159.464 
							"/>
		</g>
		<g>
			<polygon fill="#FFFFFF" points="231.217,210.189 198.672,210.189 198.672,204.189 229.025,204.189 311.355,134.799 
				364.501,119.444 366.167,125.208 314.246,140.209 			"/>
		</g>
		<g>
			<polygon fill="#FFFFFF" points="276.906,166.128 249.822,68.997 312.341,68.997 368.378,51.415 370.175,57.14 313.261,74.997 
				257.725,74.997 282.686,164.517 			"/>
		</g>
		<g>
			<polygon fill="#FFFFFF" points="252.51,74.718 228.251,63.453 196.366,25.148 200.978,21.309 232.001,58.579 255.037,69.276 			
				"/>
		</g>
		<g>
			<polygon fill="#FFFFFF" points="231.728,263.644 145.121,129.226 54.84,44.166 58.955,39.799 149.768,125.36 236.771,260.394 			
				"/>
		</g>
		<g>
			
				<rect x="93.659" y="83.705" transform="matrix(0.1722 0.9851 -0.9851 0.1722 202.2298 7.4895)" fill="#FFFFFF" width="6" height="80.73"/>
		</g>
	</g>
</g>
<g id="Layer_3">
	<path opacity="0.2" fill="#3A3A3A" d="M215.733,111.779c-4.504-15.135-14.632-27.608-28.519-35.125
		c-8.628-4.67-18.342-7.139-28.092-7.139c-21.751,0-41.69,11.873-52.036,30.986c-7.517,13.887-9.176,29.869-4.672,45.003
		c1.927,6.477,4.894,12.462,8.734,17.784L90.78,179.814c-1.978-2.203-4.772-3.469-7.753-3.469c-2.41,0-4.763,0.845-6.623,2.376
		l-54.968,45.045c-2.15,1.771-3.481,4.274-3.75,7.048c-0.268,2.773,0.561,5.484,2.332,7.635l2.779,3.377
		c1.99,2.413,4.926,3.797,8.056,3.797c2.411,0,4.766-0.845,6.624-2.377l54.971-45.044c4.229-3.487,4.995-9.629,1.894-14.04
		l20.313-16.481c4.556,5.178,10.032,9.568,16.278,12.948c8.629,4.672,18.342,7.139,28.092,7.139
		c21.752,0,41.692-11.873,52.037-30.985C218.58,142.896,220.237,126.913,215.733,111.779z"/>
	<circle opacity="0.5" fill="#FFFFFF" cx="154.596" cy="120.301" r="45.012"/>
	<g>
		<polygon fill="#FFFFFF" stroke="#D34620" stroke-width="4" stroke-miterlimit="10" points="122.076,153.229 74.942,192.352 
			69.57,185.921 116.705,146.799 		"/>
		<path fill="#FFFFFF" stroke="#D34620" stroke-width="4" stroke-miterlimit="10" d="M181.665,72.164
			c-27.62-14.951-62.13-4.681-77.08,22.939c-14.95,27.621-4.682,62.132,22.939,77.082c27.622,14.951,62.132,4.68,77.082-22.941
			C219.558,121.625,209.286,87.113,181.665,72.164z M193.985,143.496c-11.776,21.756-38.957,29.846-60.714,18.069
			c-21.756-11.775-29.844-38.958-18.068-60.713c11.776-21.755,38.958-29.845,60.712-18.068
			C197.673,94.559,205.762,121.742,193.985,143.496z"/>
		<circle fill="none" stroke="#D34620" stroke-width="3" stroke-miterlimit="10" cx="154.596" cy="122.174" r="56.867"/>
		<path fill="#FF5722" d="M31.931,235.475c-3.728,3.07-9.239,2.538-12.311-1.189l-2.78-3.375c-3.071-3.727-2.538-9.239,1.189-12.311
			l54.965-45.041c3.727-3.07,9.237-2.538,12.31,1.189l2.78,3.375c3.07,3.727,2.538,9.239-1.188,12.311L31.931,235.475z"/>
		<path fill="none" stroke="#FFFFFF" stroke-width="3" stroke-linecap="round" stroke-miterlimit="10" d="M161.15,87.807
			c3.444,0.658,6.847,1.85,10.094,3.606"/>
		<path fill="none" stroke="#FFFFFF" stroke-width="3" stroke-linecap="round" stroke-miterlimit="10" d="M123.832,105.523
			c5.579-10.306,15.585-16.686,26.388-18.055"/>
		<path fill="none" stroke="#D34620" stroke-width="3" stroke-miterlimit="10" d="M31.931,235.475
			c-3.728,3.07-9.239,2.538-12.311-1.189l-2.78-3.375c-3.071-3.727-2.538-9.239,1.189-12.311l54.965-45.041
			c3.727-3.07,9.237-2.538,12.31,1.189l2.78,3.375c3.07,3.727,2.538,9.239-1.188,12.311L31.931,235.475z"/>
	</g>
	<g>
		
			<ellipse transform="matrix(0.9533 -0.302 0.302 0.9533 -18.5888 88.667)" opacity="0.2" fill="#3A3A3A" cx="277.461" cy="104.451" rx="16.945" ry="6.369"/>
		<g>
			<path fill="#F78406" d="M300.081,66.926c0,12.493-22.619,33.117-22.619,33.117s-22.62-20.624-22.62-33.117
				c0-12.492,10.127-22.619,22.62-22.619C289.953,44.307,300.081,54.434,300.081,66.926z"/>
			<path fill="#FF5722" d="M298.981,67.68c0,10.7-19.372,28.365-19.372,28.365S260.232,78.38,260.232,67.68
				s8.674-19.373,19.377-19.373C290.307,48.307,298.981,56.979,298.981,67.68z"/>
			<path fill="none" stroke="#D34620" stroke-width="3" stroke-miterlimit="10" d="M300.081,66.926
				c0,12.493-22.619,33.117-22.619,33.117s-22.62-20.624-22.62-33.117c0-12.492,10.127-22.619,22.62-22.619
				C289.953,44.307,300.081,54.434,300.081,66.926z"/>
		</g>
		<path fill="#FFFFFF" d="M289.514,66.639c0.447-0.494,0.405-1.25-0.098-1.689l-11.047-9.668c-0.504-0.438-1.306-0.43-1.799,0.02
			l-11.086,10.166c-0.491,0.447-0.518,1.203-0.055,1.684l0.277,0.288c0.463,0.481,1.207,0.538,1.664,0.129l0.83-0.743v10.864
			c0,0.667,0.541,1.206,1.207,1.206h4.321c0.665,0,1.207-0.539,1.207-1.206v-7.601h5.51v7.601c-0.009,0.667,0.468,1.204,1.135,1.204
			h4.58c0.666,0,1.206-0.537,1.206-1.204v-10.71c0,0,0.227,0.199,0.512,0.447c0.281,0.247,0.873,0.051,1.321-0.443L289.514,66.639z
			 M289.514,66.639"/>
	</g>
	<g>
		<g>
			<path fill="#F78406" d="M177.216,114.863c0,12.493-22.62,33.117-22.62,33.117s-22.62-20.624-22.62-33.117
				c0-12.492,10.128-22.619,22.62-22.619S177.216,102.371,177.216,114.863z"/>
			<path fill="#FF5722" d="M176.115,115.617c0,10.7-19.372,28.365-19.372,28.365s-19.376-17.665-19.376-28.365
				s8.673-19.373,19.376-19.373C167.441,96.244,176.115,104.917,176.115,115.617z"/>
			<path fill="none" stroke="#D34620" stroke-width="3" stroke-miterlimit="10" d="M177.216,114.863
				c0,12.493-22.62,33.117-22.62,33.117s-22.62-20.624-22.62-33.117c0-12.492,10.128-22.619,22.62-22.619
				S177.216,102.371,177.216,114.863z"/>
		</g>
		<path fill="#FFFFFF" d="M166.647,114.576c0.447-0.494,0.406-1.25-0.097-1.689l-11.047-9.668c-0.504-0.438-1.307-0.43-1.8,0.02
			l-11.086,10.166c-0.49,0.448-0.517,1.203-0.054,1.684l0.276,0.288c0.463,0.481,1.208,0.538,1.665,0.13l0.83-0.744v10.864
			c0,0.667,0.54,1.206,1.206,1.206h4.321c0.666,0,1.207-0.539,1.207-1.206v-7.601h5.511v7.601c-0.009,0.667,0.468,1.204,1.134,1.204
			h4.58c0.666,0,1.207-0.537,1.207-1.204v-10.71c0,0,0.226,0.199,0.512,0.447c0.28,0.247,0.872,0.051,1.32-0.443L166.647,114.576z
			 M166.647,114.576"/>
	</g>
	<g>
		
			<ellipse transform="matrix(-0.9533 -0.302 0.302 -0.9533 620.4574 517.554)" opacity="0.2" fill="#3A3A3A" cx="350.233" cy="210.819" rx="16.945" ry="6.37"/>
		<g>
			<path fill="#F78406" d="M376.76,175.236c0,12.494-22.619,33.117-22.619,33.117s-22.62-20.623-22.62-33.117
				c0-12.492,10.127-22.619,22.62-22.619C366.632,152.617,376.76,162.744,376.76,175.236z"/>
			<path fill="#FF5722" d="M375.66,175.99c0,10.701-19.372,28.365-19.372,28.365s-19.376-17.664-19.376-28.365
				c0-10.7,8.673-19.373,19.376-19.373C366.986,156.617,375.66,165.29,375.66,175.99z"/>
			<path fill="none" stroke="#D34620" stroke-width="3" stroke-miterlimit="10" d="M376.76,175.236
				c0,12.494-22.619,33.117-22.619,33.117s-22.62-20.623-22.62-33.117c0-12.492,10.127-22.619,22.62-22.619
				C366.632,152.617,376.76,162.744,376.76,175.236z"/>
		</g>
		<path fill="#FFFFFF" d="M366.192,174.949c0.447-0.494,0.405-1.25-0.097-1.689l-11.048-9.668c-0.503-0.438-1.306-0.43-1.799,0.02
			l-11.086,10.166c-0.491,0.448-0.518,1.203-0.055,1.684l0.277,0.289c0.463,0.48,1.207,0.537,1.665,0.129l0.829-0.743V186
			c0,0.666,0.541,1.205,1.207,1.205h4.321c0.666,0,1.207-0.539,1.207-1.205v-7.602h5.51V186c-0.008,0.666,0.468,1.203,1.135,1.203
			h4.58c0.666,0,1.207-0.537,1.207-1.203v-10.711c0,0,0.226,0.199,0.511,0.447c0.281,0.247,0.873,0.051,1.321-0.443L366.192,174.949
			z M366.192,174.949"/>
	</g>
	
		<line fill="none" stroke="#FFFFFF" stroke-width="2" stroke-linecap="round" stroke-miterlimit="10" x1="77.604" y1="180.657" x2="81.761" y2="177.18"/>
	
		<line fill="none" stroke="#FFFFFF" stroke-width="2" stroke-linecap="round" stroke-miterlimit="10" x1="29.959" y1="220.254" x2="73.127" y2="184.209"/>
</g>
<g id="Layer_8">
</g>
<g id="Layer_9">
</g>
</svg>
